<?xml version="1.0" encoding="UTF-8" standalone="no"?>
<!-- Created with Inkscape (http://www.inkscape.org/) -->

<svg
   width="96"
   height="32"
   viewBox="0 0 25.399999 8.4666667"
   version="1.1"
   id="svg1"
   xmlns="http://www.w3.org/2000/svg"
   xmlns:svg="http://www.w3.org/2000/svg">
  <defs
     id="defs1" />
  <g
     id="layer1">
    <path
       id="rect1"
       style="fill:#ffffff;stroke-width:0.0711433;stroke-linejoin:round"
       d="M 0,0 V 8.4666667 H 25.4 V 0 Z M 0.52709961,0.52709961 H 1.5792318 c 0.2192255,0 0.42445,0.0419024 0.6149495,0.12505697 0.1920113,0.0816426 0.3602531,0.19544364 0.5053955,0.34209798 C 2.8462312,1.139397 2.960549,1.3081555 3.0421916,1.5001668 c 0.083154,0.1904994 0.1245402,0.3952072 0.1245402,0.6144328 0,0.2192255 -0.041386,0.4250053 -0.1245402,0.6170166 C 2.960549,2.9221156 2.8462312,3.0903574 2.6995768,3.2370117 2.5544344,3.3821541 2.3861926,3.4964718 2.1941813,3.5796265 2.0036818,3.661269 1.7984573,3.7020996 1.5792318,3.7020996 H 0.52709961 Z m 3.25768229,0 h 1.2929443 c 0.1738686,0 0.3311991,0.0440847 0.4718059,0.1317749 0.1406066,0.0876902 0.2516703,0.20530057 0.333313,0.35346679 0.083155,0.1466544 0.1245402,0.3083494 0.1245402,0.4852417 0,0.1360711 -0.022856,0.2634438 -0.068213,0.3813721 C 5.8938155,1.9953714 5.8290186,2.0988164 5.7443522,2.1895304 5.6611977,2.2787325 5.5631891,2.3505927 5.4497965,2.4050212 L 6.2027222,3.7020996 H 5.4177572 L 4.701005,2.4685832 H 4.4653605 V 3.7020996 H 3.7847819 Z m 3.0582113,0 H 8.8661255 V 1.2076782 H 7.5235718 V 1.6608805 H 8.5576172 V 2.3414591 H 7.5235718 V 3.0220378 H 8.8661255 V 3.7020996 H 6.8429932 Z m 2.7543538,0 h 0.721403 l 0.870748,2.39468589 0.870748,-2.39468589 h 0.721403 L 11.629264,3.7020996 h -0.879533 z m 4.591451,0 H 14.95516 L 16.107544,3.7020996 H 15.386141 L 15.204757,3.203422 H 13.939201 L 13.757817,3.7020996 H 13.03693 Z m 1.856217,0 h 0.802535 l 0.639755,1.00717369 0.639754,-1.00717369 h 0.802535 L 17.827336,2.2732463 V 3.7020996 H 17.147274 V 2.2732463 Z m 3.412195,0 h 0.734322 L 21.352702,2.473234 V 0.52709961 H 22.03328 V 3.7020996 H 21.298442 L 20.137272,1.7564819 V 3.7020996 H 19.45721 Z m 3.387907,0 H 24.86825 V 1.2076782 h -1.342554 v 0.4532023 h 1.034045 V 2.3414591 H 23.525696 V 3.0220378 H 24.86825 V 3.7020996 H 22.845117 Z M 4.4653605,1.1079427 v 0.6800619 h 0.530717 c 0.060476,0 0.1154717,-0.015237 0.1653646,-0.045475 0.049892,-0.03175 0.090168,-0.073136 0.120406,-0.1245402 0.030238,-0.051405 0.045475,-0.1080275 0.045475,-0.1700155 0,-0.061988 -0.015237,-0.1186108 -0.045475,-0.1700154 C 5.2516102,1.2265534 5.2113347,1.1857231 5.1614421,1.155485 5.1115493,1.1237352 5.0565534,1.1079427 4.9960775,1.1079427 Z m -3.2576823,0.099735 v 1.8143596 h 0.3715536 c 0.1224638,0 0.2384087,-0.023411 0.3472656,-0.07028 C 2.0353542,2.9048886 2.1322525,2.839575 2.2169189,2.7564209 2.3015855,2.6732664 2.3669372,2.57744 2.4138062,2.4685832 c 0.048381,-0.1103688 0.072864,-0.2284959 0.072864,-0.3539836 0,-0.1254878 -0.024483,-0.2425429 -0.072864,-0.3513997 C 2.3669372,1.6543433 2.3015855,1.5585167 2.2169189,1.4753621 2.1337645,1.3906957 2.0374212,1.324827 1.9285645,1.2779582 1.8197077,1.2310892 1.7032075,1.2076782 1.5792318,1.2076782 Z M 14.569653,1.4707113 14.188798,2.5228434 h 0.766362 z m 9.129676,3.3486328 c 0.172015,0 0.336588,0.027804 0.494026,0.083199 0.158896,0.053937 0.2974,0.1326607 0.415479,0.2361613 0.118078,0.1035009 0.202709,0.2272355 0.253731,0.3715536 l -0.6165,0.2232422 c -0.01458,-0.042275 -0.04768,-0.082505 -0.0987,-0.1204061 -0.04957,-0.039359 -0.11291,-0.071336 -0.190169,-0.096118 -0.07726,-0.024782 -0.163111,-0.037207 -0.257865,-0.037207 -0.08455,-0.00146 -0.165618,0.010965 -0.24288,0.037207 -0.07726,0.02624 -0.140606,0.06178 -0.190169,0.1069702 -0.04957,0.045191 -0.07441,0.09611 -0.07441,0.1529623 0,0.078719 0.02363,0.1378907 0.07028,0.1772501 0.04665,0.037902 0.107646,0.065097 0.183451,0.081132 0.07726,0.016035 0.161893,0.030288 0.253732,0.043408 0.209917,0.030613 0.402904,0.085612 0.579292,0.1643311 0.176389,0.078719 0.317847,0.1835112 0.424264,0.3147095 0.106416,0.1311982 0.15968,0.2909896 0.15968,0.4790405 0,0.1909663 -0.05387,0.3584935 -0.161747,0.5028117 -0.106417,0.1428603 -0.247874,0.2541698 -0.424264,0.3343465 -0.176388,0.080177 -0.368766,0.1204061 -0.577225,0.1204061 -0.172016,0 -0.336589,-0.027195 -0.494027,-0.081132 C 23.047864,7.8578173 22.909969,7.7790939 22.79189,7.6770508 22.673812,7.5735499 22.588571,7.4504246 22.536092,7.3075643 l 0.6165,-0.2273763 c 0.01458,0.042275 0.04656,0.083113 0.09612,0.1224731 0.05102,0.039359 0.115491,0.072462 0.192753,0.098702 0.07726,0.024782 0.163112,0.03669 0.257866,0.03669 0.08747,0 0.169752,-0.011908 0.247013,-0.03669 0.07726,-0.026239 0.139996,-0.062296 0.188102,-0.107487 0.04811,-0.045191 0.07235,-0.097328 0.07235,-0.1570963 0,-0.061226 -0.02598,-0.1115358 -0.077,-0.1508952 -0.04957,-0.040817 -0.11352,-0.073311 -0.192236,-0.096635 C 23.8603,6.7644676 23.780966,6.7466516 23.699332,6.7349896 23.47775,6.7029187 23.278854,6.6502642 23.102466,6.5773763 22.927535,6.5030306 22.789031,6.4011924 22.686987,6.2714518 22.586402,6.1417114 22.536092,5.9766213 22.536092,5.7769084 c 0,-0.1909664 0.05387,-0.3578843 0.161747,-0.5007447 0.107875,-0.144318 0.249942,-0.2562368 0.426331,-0.3364135 0.177846,-0.080177 0.369615,-0.1204061 0.575159,-0.1204061 z M 0.52916667,4.8761882 H 1.543575 c 0.211375,0 0.4090512,0.040229 0.5927287,0.120406 0.1851354,0.078719 0.347364,0.1888098 0.4873088,0.3302124 0.1414026,0.1399448 0.2514934,0.3021734 0.3302124,0.4873088 0.080177,0.1836775 0.1204061,0.3813537 0.1204061,0.5927287 0,0.211375 -0.040229,0.4096604 -0.1204061,0.5947957 C 2.8751059,7.1853174 2.7650151,7.347546 2.6236125,7.4889486 2.4836677,7.6288934 2.3214391,7.7389843 2.1363037,7.819161 1.9526262,7.8978799 1.75495,7.9375 1.543575,7.9375 H 0.52916667 Z m 4.57801513,0 h 0.738973 L 6.9571981,7.9375 H 6.2616333 L 6.086967,7.4563924 H 4.8668864 L 4.6917033,7.9375 H 3.9961385 Z m 2.7062948,0 H 8.4914714 L 8.9637939,6.7303385 9.4361165,4.8761882 h 0.6035805 l 0.472323,1.8541503 0.472322,-1.8541503 h 0.677995 L 10.883573,7.9375 H 10.1446 L 9.7379069,6.35 9.3353475,7.9375 h -0.738973 z m 5.1206174,0 h 0.655774 v 1.0407633 l 0.870748,-1.0407633 h 0.856795 L 14.106116,6.3195109 15.317411,7.9375 H 14.460616 L 13.677718,6.8311076 13.589868,6.9360107 V 7.9375 h -0.655774 z m 3.63337,0 h 0.656291 V 7.9375 h -0.656291 z m 2.124935,0 h 0.708484 l 1.119828,1.8758544 V 4.8761882 h 0.655774 V 7.9375 H 20.468001 L 19.34869,6.0611287 V 7.9375 H 18.692399 Z M 1.1849406,5.5319621 V 7.2812093 H 1.543575 c 0.1180784,0 0.2293879,-0.022506 0.3343465,-0.067696 C 1.9828802,7.1683226 2.0763734,7.1055876 2.1580078,7.025411 2.2396423,6.9452343 2.3029866,6.8528672 2.3481771,6.7479085 2.394825,6.6414921 2.418457,6.527838 2.418457,6.4068441 2.418457,6.2858501 2.394825,6.1728053 2.348177,6.0678467 2.3029866,5.9628882 2.2396423,5.870521 2.1580078,5.7903442 2.0778311,5.7087098 1.985464,5.6453655 1.8805054,5.600175 1.7755468,5.5549844 1.6631112,5.5319621 1.543575,5.5319621 Z M 5.4746012,5.7856934 5.1071818,6.8006185 h 0.738973 z" />
  </g>
</svg>
